<?xml version="1.0" standalone="no"?>
<!DOCTYPE svg PUBLIC "-//W3C//DTD SVG 20010904//EN"
 "http://www.w3.org/TR/2001/REC-SVG-20010904/DTD/svg10.dtd">
<svg version="1.0" xmlns="http://www.w3.org/2000/svg"
 width="260.000000pt" height="260.000000pt" viewBox="0 0 260.000000 260.000000"
 preserveAspectRatio="xMidYMid meet">
<metadata>
Created by potrace 1.11, written by Peter Selinger 2001-2013
</metadata>
<g transform="translate(0.000000,260.000000) scale(0.100000,-0.100000)"
fill="#000000" stroke="none">
<path d="M1123 2335 c-86 -19 -155 -59 -217 -126 -88 -94 -123 -197 -113 -323
8 -98 55 -188 153 -296 42 -47 86 -95 96 -107 l20 -22 -73 -35 c-378 -179
-536 -485 -411 -797 36 -92 102 -180 176 -236 108 -82 207 -113 356 -113 191
0 327 62 431 197 23 29 71 111 109 183 l67 131 248 -256 249 -256 30 31 31 30
-175 178 c-96 97 -213 216 -259 263 l-83 87 27 53 c15 30 93 182 175 339 82
157 150 291 152 299 2 10 -8 16 -34 18 -45 4 -44 7 -178 -252 -52 -99 -119
-229 -150 -288 l-57 -108 -243 251 c-133 138 -241 253 -238 255 2 3 54 29 114
58 179 89 263 164 303 272 39 104 31 236 -19 336 -90 177 -295 276 -487 234z
m182 -80 c120 -31 227 -138 255 -255 17 -71 8 -185 -18 -236 -35 -68 -113
-129 -260 -202 l-134 -67 -88 92 c-147 153 -185 225 -184 348 1 151 104 281
253 321 63 17 106 17 176 -1z m-11 -1032 c94 -98 213 -221 264 -275 l94 -96
-60 -124 c-120 -249 -225 -345 -404 -368 -233 -29 -429 74 -525 276 -31 65
-37 88 -41 169 -12 230 103 389 389 540 57 30 106 55 108 55 2 0 81 -80 175
-177z"/>
</g>
</svg>
