<svg width="64" height="76" viewBox="0 0 64 76" fill="none" xmlns="http://www.w3.org/2000/svg">
    <g clip-path="url(#clip0_1094_3360)">
        <path d="M62.4584 53.5139L28.3593 21.8858C27.5179 21.1228 26.4207 20.7 25.2825 20.7C24.1597 20.6937 23.0727 21.0937 22.224 21.8257C21.3753 22.5576 20.8226 23.5716 20.6688 24.679L14.9703 70.7262C14.5484 73.682 16.9211 76.0062 19.5697 76.0062C20.3867 76.0043 21.1886 75.7863 21.8932 75.3746L31.9073 67.0061C32.9352 66.1755 34.0247 65.4234 35.1665 64.7561C36.6437 63.9009 38.2058 63.1998 39.8277 62.664L39.9181 62.634C40.9557 62.3023 42.0157 62.0448 43.0901 61.8635C44.352 61.6564 45.6274 61.5414 46.9061 61.5193L60.1555 61.5098C63.9683 60.8372 65.337 56.0892 62.4584 53.5139ZM46.9013 55.5508H46.7586C45.1874 55.5794 43.6204 55.7229 42.0703 55.9803C40.7161 56.2103 39.3799 56.5359 38.072 56.9545L37.961 56.9908C35.9449 57.655 34.0028 58.5244 32.1658 59.585C30.7633 60.4013 29.4251 61.3224 28.1627 62.3403C28.1246 62.3703 28.0866 62.4003 28.0501 62.4319L21.3286 68.0483L26.2706 28.1006L55.8527 55.5429L46.9013 55.5508Z" fill="#2E2F2F"/>
        <path d="M19.5919 12.2274C19.981 12.2274 20.3643 12.1341 20.7095 11.9552C21.0546 11.7763 21.3514 11.5173 21.5745 11.1999C21.7977 10.8826 21.9407 10.5164 21.9915 10.1324C22.0423 9.74831 21.9993 9.35772 21.8662 8.99372L19.1605 1.58682C18.9409 0.986314 18.4907 0.497236 17.9089 0.227182C17.3271 -0.0428723 16.6614 -0.0717808 16.0583 0.146815C15.4551 0.365411 14.9638 0.813603 14.6925 1.3928C14.4213 1.97199 14.3922 2.63475 14.6118 3.23526L17.3191 10.6422C17.4893 11.1063 17.7986 11.5072 18.205 11.7907C18.6115 12.0742 19.0956 12.2267 19.5919 12.2274Z" fill="#2E2F2F"/>
        <path d="M11.424 16.0153L4.25208 12.6789C3.67034 12.4088 3.00465 12.3799 2.40146 12.5984C1.79826 12.8169 1.30697 13.2651 1.03566 13.8442C0.764348 14.4234 0.735245 15.0861 0.954751 15.6866C1.17426 16.2871 1.62439 16.7762 2.20613 17.0463L9.3828 20.3779C9.96273 20.6357 10.6212 20.6563 11.2162 20.4351C11.8112 20.2139 12.295 19.7687 12.5633 19.1956C12.8316 18.6225 12.8628 17.9673 12.6503 17.3715C12.4377 16.7756 11.9984 16.2868 11.4272 16.0105L11.424 16.0153Z" fill="#2E2F2F"/>
        <path d="M40.4621 21.916C40.7445 21.9165 41.0248 21.8673 41.29 21.7707L48.73 19.0739C49.0285 18.9656 49.3027 18.7999 49.537 18.5862C49.7712 18.3724 49.9609 18.1148 50.0951 17.8281C50.2293 17.5414 50.3056 17.2312 50.3194 16.9151C50.3332 16.5991 50.2843 16.2835 50.1756 15.9862C50.0669 15.689 49.9004 15.416 49.6857 15.1828C49.471 14.9496 49.2123 14.7608 48.9243 14.6271C48.6363 14.4935 48.3247 14.4176 48.0072 14.4039C47.6898 14.3901 47.3727 14.4388 47.0742 14.547L39.6327 17.2423C39.0979 17.436 38.6488 17.8111 38.3643 18.3017C38.0798 18.7923 37.978 19.3671 38.0768 19.925C38.1756 20.4829 38.4688 20.9883 38.9047 21.3524C39.3406 21.7165 39.8915 21.9161 40.4605 21.916H40.4621Z" fill="#2E2F2F"/>
        <path d="M9.03225 28.3311L1.59231 31.0264C1.29364 31.1347 1.01931 31.3004 0.784979 31.5142C0.550651 31.728 0.36092 31.9856 0.226606 32.2724C-0.0446528 32.8516 -0.0736975 33.5144 0.145874 34.1149C0.254594 34.4122 0.421087 34.6853 0.635827 34.9186C0.850567 35.1519 1.10936 35.3408 1.39743 35.4745C1.97921 35.7446 2.64492 35.7735 3.24811 35.5549L10.688 32.8596C10.9867 32.7514 11.261 32.5856 11.4954 32.3718C11.7297 32.158 11.9194 31.9004 12.0538 31.6136C12.1881 31.3268 12.2643 31.0165 12.2782 30.7004C12.292 30.3842 12.2432 30.0685 12.1345 29.7711C12.0257 29.4738 11.8593 29.2007 11.6445 28.9674C11.4298 28.7341 11.171 28.5452 10.8829 28.4115C10.5949 28.2778 10.2832 28.2019 9.96562 28.1881C9.64808 28.1743 9.33092 28.2229 9.03225 28.3311Z" fill="#2E2F2F"/>
        <path d="M31.0206 12.5401C31.3085 12.6745 31.6202 12.751 31.9379 12.7651C32.2556 12.7792 32.573 12.7308 32.8718 12.6225C33.1707 12.5143 33.4451 12.3483 33.6794 12.1342C33.9136 11.9201 34.1031 11.662 34.237 11.3749L37.5834 4.23165C37.8547 3.65249 37.8838 2.98976 37.6643 2.38925C37.4448 1.78873 36.9947 1.29962 36.413 1.02952C36.1249 0.895779 35.8132 0.819831 35.4957 0.80601C35.1782 0.79219 34.861 0.840768 34.5623 0.948973C33.9591 1.1675 33.4679 1.61564 33.1965 2.19479L29.8501 9.338C29.5792 9.91721 29.5503 10.5798 29.7698 11.1802C29.9893 11.7806 30.4391 12.2697 31.0206 12.5401Z" fill="#2E2F2F"/>
        <path d="M26.0088 42.2481C26.0088 41.2671 26.326 40.4718 26.9604 39.8623C27.5948 39.2529 28.4322 38.9476 29.4726 38.9465C30.5226 38.9465 31.3684 39.2481 32.0102 39.8513C32.652 40.4544 32.9692 41.2718 32.9618 42.3034V43.0929C32.9618 44.0803 32.6446 44.8734 32.0102 45.4724C31.3758 46.0713 30.5384 46.3713 29.498 46.3724C28.4544 46.3724 27.6117 46.0708 26.9699 45.4676C26.3281 44.8645 26.0067 44.0508 26.0056 43.0266L26.0088 42.2481ZM28.1229 43.0929C28.1046 43.4817 28.2414 43.862 28.5036 44.1508C28.6319 44.2841 28.7871 44.3888 28.9591 44.458C29.1311 44.5271 29.3158 44.5591 29.5012 44.5518C29.6845 44.56 29.8673 44.5278 30.0367 44.4577C30.2061 44.3876 30.3579 44.2812 30.4813 44.146C30.7346 43.8419 30.8642 43.4543 30.8445 43.0597V42.2481C30.8628 41.8605 30.7331 41.4803 30.4813 41.1839C30.2168 40.9253 29.8608 40.7804 29.4901 40.7804C29.1193 40.7804 28.7633 40.9253 28.4988 41.1839C28.2352 41.4904 28.1006 41.8863 28.1229 42.2892V43.0929ZM30.1292 53.9514L28.575 53.1177L36.4082 40.636L37.9625 41.4697L30.1292 53.9514ZM33.6771 51.2308C33.6771 50.2445 34.0001 49.4492 34.6462 48.845C35.2922 48.2408 36.1296 47.9392 37.1584 47.9403C38.2009 47.9403 39.0436 48.2382 39.6865 48.834C40.3293 49.4298 40.6508 50.2508 40.6508 51.2972V52.0866C40.6508 53.0666 40.3336 53.8561 39.6992 54.4551C39.0648 55.054 38.2242 55.3556 37.1775 55.3598C36.1201 55.3598 35.2742 55.0561 34.6398 54.4488C34.0054 53.8414 33.6882 53.0372 33.6882 52.0361L33.6771 51.2308ZM35.7913 52.0866C35.7838 52.4689 35.9267 52.8389 36.1894 53.1177C36.3137 53.2562 36.4667 53.3661 36.6378 53.44C36.8089 53.5139 36.9941 53.5499 37.1806 53.5456C38.0772 53.5456 38.525 53.0519 38.524 52.0645V51.2308C38.5421 50.8432 38.4079 50.4637 38.1497 50.1729C37.8836 49.9173 37.5282 49.7744 37.1584 49.7744C36.7886 49.7744 36.4332 49.9173 36.1671 50.1729C35.904 50.4741 35.7691 50.8655 35.7913 51.264V52.0866Z" fill="#2E2F2F"/>
    </g>
    <defs>
        <clipPath id="clip0_1094_3360">
            <rect width="64" height="76" fill="white"/>
        </clipPath>
    </defs>
</svg>
