<svg width="29" height="29" viewBox="0 0 29 29" fill="none" xmlns="http://www.w3.org/2000/svg">
    <path d="M24.1667 3.625H4.83337C2.83134 3.625 1.20837 5.24797 1.20837 7.25V24.1667C1.20837 26.1687 2.83134 27.7917 4.83337 27.7917H24.1667C26.1687 27.7917 27.7917 26.1687 27.7917 24.1667V7.25C27.7917 5.24797 26.1687 3.625 24.1667 3.625Z" stroke="black" stroke-width="2" stroke-linecap="round" stroke-linejoin="round"/>
    <path d="M1.20837 10.875H27.7917" stroke="black" stroke-width="2" stroke-linecap="round" stroke-linejoin="round"/>
    <path d="M14.5 6.04159V1.20825" stroke="black" stroke-width="2" stroke-linecap="round" stroke-linejoin="round"/>
    <path d="M7.25 6.04159V1.20825" stroke="black" stroke-width="2" stroke-linecap="round" stroke-linejoin="round"/>
    <path d="M21.75 6.04159V1.20825" stroke="black" stroke-width="2" stroke-linecap="round" stroke-linejoin="round"/>
    <path d="M6.04175 16.9165H8.45842" stroke="black" stroke-width="2" stroke-linecap="round" stroke-linejoin="round"/>
    <path d="M13.2917 16.9165H15.7084" stroke="black" stroke-width="2" stroke-linecap="round" stroke-linejoin="round"/>
    <path d="M20.5417 16.9165H22.9584" stroke="black" stroke-width="2" stroke-linecap="round" stroke-linejoin="round"/>
    <path d="M6.04175 21.75H8.45842" stroke="black" stroke-width="2" stroke-linecap="round" stroke-linejoin="round"/>
    <path d="M13.2917 21.75H15.7084" stroke="black" stroke-width="2" stroke-linecap="round" stroke-linejoin="round"/>
    <path d="M20.5417 21.75H22.9584" stroke="black" stroke-width="2" stroke-linecap="round" stroke-linejoin="round"/>
</svg>
