<svg width="102" height="102" viewBox="0 0 102 102" fill="none" xmlns="http://www.w3.org/2000/svg">
    <path d="M55.25 8.5H25.5C23.2457 8.5 21.0837 9.39553 19.4896 10.9896C17.8955 12.5837 17 14.7457 17 17V85C17 87.2543 17.8955 89.4163 19.4896 91.0104C21.0837 92.6045 23.2457 93.5 25.5 93.5H76.5C78.7543 93.5 80.9163 92.6045 82.5104 91.0104C84.1045 89.4163 85 87.2543 85 85V38.25L55.25 8.5Z" stroke="#2E2F2F" stroke-width="5" stroke-linecap="round" stroke-linejoin="round"/>
    <path d="M55.25 8.5V38.25H85" stroke="#2E2F2F" stroke-width="5" stroke-linecap="round" stroke-linejoin="round"/>
    <path d="M33.5833 62.9999C33.5833 62.9999 39.9166 50.3333 51 50.3333C62.0833 50.3333 68.4166 62.9999 68.4166 62.9999C68.4166 62.9999 62.0833 75.6666 51 75.6666C39.9166 75.6666 33.5833 62.9999 33.5833 62.9999Z" stroke="#2E2F2F" stroke-width="3" stroke-linecap="round" stroke-linejoin="round"/>
    <path d="M51 67.75C53.6234 67.75 55.75 65.6234 55.75 63C55.75 60.3766 53.6234 58.25 51 58.25C48.3766 58.25 46.25 60.3766 46.25 63C46.25 65.6234 48.3766 67.75 51 67.75Z" stroke="#2E2F2F" stroke-width="3" stroke-linecap="round" stroke-linejoin="round"/>
</svg>
