<svg width="35" height="35" viewBox="0 0 35 35" fill="none" xmlns="http://www.w3.org/2000/svg">
    <path d="M13.125 8.75H11.6667V7.29167H14.5833V10.2083H13.125V8.75ZM16.0417 7.29167H14.5833V4.375H11.6667V2.91667H16.0417V4.375H17.5V5.83333H16.0417V7.29167ZM18.9583 2.91667H16.0417V1.45833H11.6667V0H17.5V1.45833H18.9583V0H20.4167V7.29167H18.9583V2.91667ZM7.29167 7.29167H2.91667V2.91667H7.29167V7.29167ZM17.5 7.29167H18.9583V8.75H17.5V7.29167ZM29.1667 7.29167H24.7917V2.91667H29.1667V7.29167ZM32.0833 0H21.875V5.10417V10.2083H32.0833V0ZM30.625 8.75H23.3333V1.45833H30.625V8.75ZM16.0417 8.75H17.5V10.2083H16.0417V8.75ZM18.9583 10.2083V8.75H20.4167V10.2083H18.9583ZM8.75 13.125V14.5833H7.29167V13.125H8.75ZM10.2083 0H0V10.2083H10.2083V0ZM8.75 8.75H1.45833V1.45833H8.75V8.75ZM13.125 20.4167V23.3333H11.6667V20.4167H13.125ZM7.29167 11.6667V13.125H4.375V14.5833H5.83333V16.0417H1.45833V14.5833H2.91667V13.125H0V11.6667H7.29167ZM2.91667 24.7917H7.29167V29.1667H2.91667V24.7917ZM0 32.0833H10.2083V21.875H0V32.0833ZM1.45833 23.3333H8.75V30.625H1.45833V23.3333ZM8.75 18.9583H10.2083V20.4167H8.75V18.9583ZM5.83333 17.5V16.0417H7.29167V20.4167H5.83333V18.9583H4.375V20.4167H2.91667V18.9583H1.45833V20.4167H0V17.5H5.83333ZM14.7131 24.4037C14.7131 18.9131 19.3054 14.4215 24.7975 14.5965C27.6471 14.6723 30.2823 15.9731 32.0833 18.1388V14.5833H30.625V11.6667H29.1667V14.1312C28.2523 13.7171 27.2738 13.4269 26.25 13.2694V13.125H27.7083V11.6667H24.7917V13.125H23.3333V11.6667H21.875V13.125H20.4167V11.6667H18.9583V13.125H17.5V11.6667H16.0417V13.125H14.5833V14.5833H13.125V13.125H14.5833V11.6667H8.75V13.125H11.6667V14.5833H8.75V16.0417H10.2083V18.9583H11.6667V17.5H14.5833V19.1042C13.8965 20.3875 13.4531 21.8167 13.3088 23.3333H13.125V24.7917H11.6667V32.0833H13.125V30.625H15.1419C15.4904 31.1442 15.8637 31.6079 16.2954 32.0833H18.4435C15.9979 30.1379 14.7131 27.2781 14.7131 24.4037ZM16.0417 16.0417V14.5833H17.5V15.6013C16.9721 16.0242 16.4865 16.4952 16.0417 17.0042V16.0417ZM13.125 29.1667V27.7083H13.7506C13.9052 28.2115 14.1035 28.6956 14.3237 29.1667H13.125ZM35 32.9379L30.87 28.8079C31.6342 27.6558 32.0833 26.2777 32.0833 24.7917C32.0833 20.7652 28.8181 17.5 24.7917 17.5C20.7652 17.5 17.5 20.7652 17.5 24.7917C17.5 28.8181 20.7652 32.0833 24.7917 32.0833C26.2777 32.0833 27.6558 31.6342 28.8079 30.87L32.9379 35L35 32.9379ZM24.7917 29.1667C22.3796 29.1667 20.4167 27.2038 20.4167 24.7917C20.4167 22.3796 22.3796 20.4167 24.7917 20.4167C27.2038 20.4167 29.1667 22.3796 29.1667 24.7917C29.1667 27.2038 27.2038 29.1667 24.7917 29.1667Z" fill="#2E2F2F"/>
</svg>
