<svg width="22" height="20" viewBox="0 0 22 20" fill="none" xmlns="http://www.w3.org/2000/svg">
    <path d="M19 1H3C1.89543 1 1 1.89543 1 3V13C1 14.1046 1.89543 15 3 15H19C20.1046 15 21 14.1046 21 13V3C21 1.89543 20.1046 1 19 1Z" stroke="black" stroke-width="2" stroke-linecap="round" stroke-linejoin="round"/>
    <path d="M7 19H15" stroke="black" stroke-width="2" stroke-linecap="round" stroke-linejoin="round"/>
    <path d="M11 15V19" stroke="black" stroke-width="2" stroke-linecap="round" stroke-linejoin="round"/>
    <path d="M12.48 9.17996H11.48C11.3731 9.16334 11.2636 9.17594 11.1633 9.21643C11.0629 9.25692 10.9754 9.32379 10.91 9.40996C10.7566 9.57597 10.5515 9.68513 10.3281 9.71963C10.1048 9.75414 9.87629 9.71196 9.67997 9.59996L8.67997 9.08996L8.54997 8.99996V13.12C8.54997 13.5 8.42997 13.62 8.04997 13.62H5.84997C5.50997 13.62 5.36997 13.48 5.36997 13.15V11.25C5.37953 11.2155 5.37553 11.1787 5.35879 11.1471C5.34205 11.1154 5.31385 11.0914 5.27997 11.08C5.07792 10.9993 4.90345 10.8621 4.7775 10.6847C4.65156 10.5073 4.5795 10.2973 4.56997 10.08C4.53999 9.56039 4.53999 9.03953 4.56997 8.51996C4.60105 8.18723 4.70719 7.86587 4.8804 7.58007C5.05361 7.29428 5.28938 7.05149 5.56997 6.86996L5.75997 6.73996C5.39662 6.42701 5.17248 5.98253 5.13685 5.50431C5.10122 5.02609 5.25702 4.55331 5.56997 4.18996C5.88293 3.82662 6.3274 3.60247 6.80562 3.56684C7.28384 3.53121 7.75662 3.68701 8.11997 3.99996C8.30456 4.15931 8.45524 4.35414 8.56307 4.57286C8.6709 4.79158 8.73367 5.02974 8.74767 5.2732C8.76166 5.51665 8.72658 5.76044 8.64452 5.99007C8.56246 6.21971 8.43509 6.43051 8.26997 6.60996L9.41997 7.17996V3.60996C9.405 3.37737 9.46105 3.14573 9.5807 2.94571C9.70035 2.7457 9.87795 2.58676 10.09 2.48996C10.2633 2.4117 10.45 2.36756 10.64 2.35996H16.22C16.4991 2.35024 16.7724 2.44066 16.9907 2.61489C17.2089 2.78911 17.3576 3.03565 17.41 3.30996V3.38996V8.14996C17.3486 8.34086 17.2682 8.52511 17.17 8.69996C17.0578 8.85896 16.9074 8.98718 16.7326 9.07281C16.5579 9.15844 16.3644 9.19872 16.17 9.18996H12.48V9.17996ZM10.67 7.80996L11.25 6.64996C11.33 6.48996 11.4 6.33996 11.49 6.18996C11.5237 6.121 11.5792 6.06504 11.6478 6.03071C11.7165 5.99638 11.7946 5.98557 11.87 5.99996C11.9423 6.00702 12.0104 6.03705 12.0644 6.08563C12.1184 6.13422 12.1554 6.19882 12.17 6.26996C12.1802 6.38336 12.1594 6.49741 12.11 6.59996C11.84 7.16996 11.55 7.72996 11.27 8.29996L11.21 8.41996H16.21C16.278 8.43009 16.3474 8.42414 16.4127 8.40259C16.478 8.38104 16.5373 8.3445 16.5859 8.29589C16.6345 8.24728 16.6711 8.18795 16.6926 8.12267C16.7141 8.05738 16.7201 7.98796 16.71 7.91996V3.61996C16.71 3.27996 16.55 3.11996 16.2 3.11996H10.68C10.33 3.11996 10.17 3.27996 10.17 3.61996V7.44996C10.1683 7.47492 10.173 7.49988 10.1835 7.52258C10.1939 7.54529 10.2099 7.56501 10.23 7.57996L10.67 7.80996ZM7.79997 12.88V8.52996C7.79473 8.46674 7.79473 8.40319 7.79997 8.33996C7.80805 8.28884 7.82676 8.23998 7.85489 8.19654C7.88303 8.1531 7.91997 8.11604 7.96332 8.08777C8.00667 8.05949 8.05548 8.04063 8.10658 8.0324C8.15767 8.02416 8.20993 8.02674 8.25997 8.03996L8.42997 8.10996L10.04 8.90996C10.1275 8.93968 10.2224 8.93968 10.31 8.90996C10.3603 8.89533 10.4047 8.86525 10.437 8.82398C10.4693 8.78271 10.4879 8.73233 10.49 8.67996C10.4906 8.62713 10.4745 8.57544 10.444 8.53232C10.4135 8.4892 10.37 8.45687 10.32 8.43996C9.63997 8.09996 8.94997 7.77996 8.31997 7.43996C7.8972 7.21255 7.419 7.1086 6.93997 7.13996C6.51878 7.15763 6.12009 7.33487 5.82481 7.63573C5.52952 7.93659 5.35976 8.33852 5.34997 8.75996V9.99996C5.34447 10.1124 5.38328 10.2225 5.45807 10.3067C5.53286 10.3908 5.63766 10.4422 5.74997 10.45C5.80929 10.4459 5.86875 10.4555 5.92381 10.478C5.97886 10.5004 6.02805 10.5352 6.06761 10.5796C6.10717 10.624 6.13606 10.6768 6.15207 10.7341C6.16808 10.7913 6.17078 10.8515 6.15997 10.91V12.91L7.79997 12.88ZM7.99997 5.41996C8.00588 5.2847 7.98509 5.1496 7.93879 5.02237C7.89248 4.89515 7.82158 4.77829 7.73011 4.67846C7.63864 4.57864 7.52841 4.49781 7.40571 4.44059C7.28301 4.38337 7.15023 4.35087 7.01497 4.34496C6.87971 4.33905 6.74461 4.35984 6.61738 4.40615C6.49015 4.45245 6.37329 4.52336 6.27347 4.61482C6.17365 4.70629 6.09282 4.81652 6.0356 4.93922C5.97837 5.06193 5.94588 5.1947 5.93997 5.32996C5.92804 5.60314 6.02511 5.86986 6.20983 6.07146C6.39455 6.27306 6.6518 6.39303 6.92497 6.40496C7.19814 6.4169 7.46487 6.31983 7.66647 6.1351C7.86807 5.95038 7.98804 5.69314 7.99997 5.41996Z" fill="black"/>
    <path d="M13.43 4.73006H11.43C11.3679 4.73303 11.306 4.72028 11.25 4.69298C11.1941 4.66567 11.146 4.6247 11.1101 4.57385C11.0742 4.52301 11.0517 4.46393 11.0447 4.40209C11.0377 4.34025 11.0464 4.27764 11.07 4.22006C11.0876 4.16577 11.119 4.11696 11.161 4.0784C11.2031 4.03984 11.2544 4.01285 11.31 4.00006C11.3662 3.98973 11.4238 3.98973 11.48 4.00006H15.38C15.69 4.00006 15.88 4.21006 15.81 4.48006C15.785 4.56443 15.7314 4.63747 15.6584 4.68671C15.5855 4.73595 15.4977 4.75834 15.41 4.75006H13.41L13.43 4.73006Z" fill="black"/>
    <path d="M14.44 5.4C14.77 5.4 15.11 5.4 15.44 5.4C15.5166 5.39614 15.5923 5.41754 15.6556 5.4609C15.7188 5.50426 15.766 5.56718 15.79 5.64C15.8191 5.70446 15.828 5.77623 15.8155 5.84586C15.803 5.91548 15.7697 5.97968 15.72 6.03C15.6793 6.07298 15.6293 6.10612 15.5739 6.12691C15.5184 6.14771 15.459 6.1556 15.4 6.15H13.4C13.3236 6.15358 13.248 6.13339 13.1835 6.0922C13.119 6.05101 13.0689 5.99085 13.04 5.92C13.0087 5.85432 12.9986 5.7805 13.0111 5.70881C13.0236 5.63711 13.0582 5.57111 13.11 5.52C13.1533 5.47421 13.2064 5.43875 13.2652 5.41625C13.3241 5.39374 13.3872 5.38477 13.45 5.39L14.44 5.4Z" fill="black"/>
    <path d="M14.44 6.81006H15.44C15.5408 6.81006 15.6375 6.85009 15.7087 6.92136C15.78 6.99262 15.82 7.08928 15.82 7.19006C15.82 7.29084 15.78 7.38749 15.7087 7.45876C15.6375 7.53002 15.5408 7.57006 15.44 7.57006H13.44C13.3885 7.57278 13.3369 7.56496 13.2885 7.54708C13.24 7.5292 13.1957 7.50165 13.1583 7.46608C13.1209 7.43052 13.0911 7.38771 13.0708 7.34025C13.0504 7.29279 13.04 7.24169 13.04 7.19006C13.0399 7.13884 13.0503 7.08814 13.0708 7.04118C13.0912 6.99421 13.1212 6.952 13.1588 6.91722C13.1964 6.88244 13.2408 6.85585 13.2892 6.83912C13.3376 6.8224 13.389 6.8159 13.44 6.82006L14.44 6.81006Z" fill="black"/>
</svg>
