<?xml version="1.0" encoding="utf-8"?>
<!-- Generator: Adobe Illustrator 25.4.1, SVG Export Plug-In . SVG Version: 6.00 Build 0)  -->
<svg version="1.1" id="Calque_1" xmlns="http://www.w3.org/2000/svg" xmlns:xlink="http://www.w3.org/1999/xlink" x="0px" y="0px"
	 viewBox="0 0 24 14" style="enable-background:new 0 0 24 14;" xml:space="preserve">
<style type="text/css">
	.st0{fill:#FFFFFF;stroke:#2E2F2F;stroke-width:0.5;}
	.st1{fill:#FAA61A;}
</style>
<path class="st0" d="M-401.84-290.35h10c3.73,0,6.75,3.02,6.75,6.75l0,0c0,3.73-3.02,6.75-6.75,6.75h-10
	c-3.73,0-6.75-3.02-6.75-6.75l0,0C-408.59-287.33-405.57-290.35-401.84-290.35z"/>
<circle class="st1" cx="-401.84" cy="-283.6" r="5"/>
<path class="st0" d="M-401.84-290.35h10c3.73,0,6.75,3.02,6.75,6.75l0,0c0,3.73-3.02,6.75-6.75,6.75h-10
	c-3.73,0-6.75-3.02-6.75-6.75l0,0C-408.59-287.33-405.57-290.35-401.84-290.35z"/>
<circle class="st1" cx="-401.84" cy="-283.6" r="5"/>
<path class="st0" d="M7,0.25h10c3.73,0,6.75,3.02,6.75,6.75l0,0c0,3.73-3.02,6.75-6.75,6.75H7c-3.73,0-6.75-3.02-6.75-6.75l0,0
	C0.25,3.27,3.27,0.25,7,0.25z"/>
<circle class="st1" cx="7" cy="7" r="5"/>
</svg>
